HIERARCHY
ROOT hip
{
  OFFSET 0 90.174 2.4664
  CHANNELS 6 Xposition Yposition Zposition Zrotation Xrotation Yrotation
  JOINT abdomen
  {
    OFFSET 0 -1.186 -1.5018
    CHANNELS 6 Xposition Yposition Zposition Zrotation Xrotation Yrotation
    JOINT abdomen2
    {
      OFFSET 0 9.964 0.2134
      CHANNELS 6 Xposition Yposition Zposition Zrotation Xrotation Yrotation
      JOINT chest
      {
        OFFSET 0 13.134 -3.2573
        CHANNELS 6 Xposition Yposition Zposition Zrotation Xrotation Yrotation
        JOINT neck
        {
          OFFSET 0 20.686 -1.6905
          CHANNELS 6 Xposition Yposition Zposition Zrotation Xrotation Yrotation
          JOINT head
          {
            OFFSET 0 7.238 -0.1237
            CHANNELS 6 Xposition Yposition Zposition Zrotation Xrotation Yrotation
            End Site
            {
              OFFSET 0 0 0
            }
          }
        }
        JOINT lCollar
        {
          OFFSET 1.7069 20.075 5.0056
          CHANNELS 6 Xposition Yposition Zposition Zrotation Xrotation Yrotation
          JOINT lShldr
          {
            OFFSET 13.6458 -0.047 -4.849
            CHANNELS 6 Xposition Yposition Zposition Zrotation Xrotation Yrotation
            JOINT lForeArm
            {
              OFFSET 28.3255 -0.9759 2.2888
              CHANNELS 6 Xposition Yposition Zposition Zrotation Xrotation Yrotation
              JOINT lHand
              {
                OFFSET 22.1583 -0.53 10.8316
                CHANNELS 6 Xposition Yposition Zposition Zrotation Xrotation Yrotation
                JOINT lThumb1
                {
                  OFFSET 0.786 0.112 2.5817
                  CHANNELS 6 Xposition Yposition Zposition Zrotation Xrotation Yrotation
                  JOINT lThumb2
                  {
                    OFFSET 0.3601 -0.878 4.2331
                    CHANNELS 6 Xposition Yposition Zposition Zrotation Xrotation Yrotation
                    JOINT lThumb2_End
                    {
                      OFFSET 1.8127 -1.216 2.2227
                      CHANNELS 6 Xposition Yposition Zposition Zrotation Xrotation Yrotation
                      End Site
                      {
                        OFFSET 0.0181 -0.0122 0.0222
                      }
                    }
                  }
                }
                JOINT lCarpal1
                {
                  OFFSET 0.9571 1.114 1.7695
                  CHANNELS 6 Xposition Yposition Zposition Zrotation Xrotation Yrotation
                  JOINT lIndex1
                  {
                    OFFSET 4.1246 0.487 4.1451
                    CHANNELS 6 Xposition Yposition Zposition Zrotation Xrotation Yrotation
                    JOINT lIndex2
                    {
                      OFFSET 3.4052 -1.454 2.7682
                      CHANNELS 6 Xposition Yposition Zposition Zrotation Xrotation Yrotation
                      JOINT lIndex2_End
                      {
                        OFFSET 1.4531 -1.795 1.2713
                        CHANNELS 6 Xposition Yposition Zposition Zrotation Xrotation Yrotation
                        End Site
                        {
                          OFFSET 0.0145 -0.0179 0.0127
                        }
                      }
                    }
                  }
                  JOINT lMid1
                  {
                    OFFSET 5.6954 0.21 2.1184
                    CHANNELS 6 Xposition Yposition Zposition Zrotation Xrotation Yrotation
                    JOINT lMid2
                    {
                      OFFSET 3.9766 -1.54 2.3863
                      CHANNELS 6 Xposition Yposition Zposition Zrotation Xrotation Yrotation
                      JOINT lMid2_End
                      {
                        OFFSET 1.4042 -1.926 1.125
                        CHANNELS 6 Xposition Yposition Zposition Zrotation Xrotation Yrotation
                        End Site
                        {
                          OFFSET 0.014 -0.0193 0.0113
                        }
                      }
                    }
                  }
                }
                JOINT lCarpal2
                {
                  OFFSET 2.0956 0.66 -0.3894
                  CHANNELS 6 Xposition Yposition Zposition Zrotation Xrotation Yrotation
                  JOINT lRing1
                  {
                    OFFSET 5.0395 -0.09 2.4971
                    CHANNELS 6 Xposition Yposition Zposition Zrotation Xrotation Yrotation
                    JOINT lRing2
                    {
                      OFFSET 3.7921 -1.552 1.4806
                      CHANNELS 6 Xposition Yposition Zposition Zrotation Xrotation Yrotation
                      JOINT lRing2_End
                      {
                        OFFSET 1.4655 -1.808 0.9609
                        CHANNELS 6 Xposition Yposition Zposition Zrotation Xrotation Yrotation
                        End Site
                        {
                          OFFSET 0.0147 -0.0181 0.0096
                        }
                      }
                    }
                  }
                  JOINT lPinky1
                  {
                    OFFSET 4.9141 -1.269 0.3591
                    CHANNELS 6 Xposition Yposition Zposition Zrotation Xrotation Yrotation
                    JOINT lPinky2
                    {
                      OFFSET 3.1477 -1.685 0.8462
                      CHANNELS 6 Xposition Yposition Zposition Zrotation Xrotation Yrotation
                      JOINT lPinky2_End
                      {
                        OFFSET 0.8055 -1.585 0.7955
                        CHANNELS 6 Xposition Yposition Zposition Zrotation Xrotation Yrotation
                        End Site
                        {
                          OFFSET 0.0081 -0.0158 0.008
                        }
                      }
                    }
                  }
                }
              }
            }
          }
        }
        JOINT rCollar
        {
          OFFSET -1.7069 20.075 5.0056
          CHANNELS 6 Xposition Yposition Zposition Zrotation Xrotation Yrotation
          JOINT rShldr
          {
            OFFSET -13.6458 -0.047 -4.849
            CHANNELS 6 Xposition Yposition Zposition Zrotation Xrotation Yrotation
            JOINT rForeArm
            {
              OFFSET -28.3255 -0.9759 2.2888
              CHANNELS 6 Xposition Yposition Zposition Zrotation Xrotation Yrotation
              JOINT rHand
              {
                OFFSET -22.1583 -0.53 10.8316
                CHANNELS 6 Xposition Yposition Zposition Zrotation Xrotation Yrotation
                JOINT rThumb1
                {
                  OFFSET -0.786 0.112 2.5817
                  CHANNELS 6 Xposition Yposition Zposition Zrotation Xrotation Yrotation
                  JOINT rThumb2
                  {
                    OFFSET -0.3601 -0.878 4.2331
                    CHANNELS 6 Xposition Yposition Zposition Zrotation Xrotation Yrotation
                    JOINT rThumb2_End
                    {
                      OFFSET -1.8127 -1.216 2.2227
                      CHANNELS 6 Xposition Yposition Zposition Zrotation Xrotation Yrotation
                      End Site
                      {
                        OFFSET -0.0181 -0.0122 0.0222
                      }
                    }
                  }
                }
                JOINT rCarpal1
                {
                  OFFSET -0.9571 1.114 1.7695
                  CHANNELS 6 Xposition Yposition Zposition Zrotation Xrotation Yrotation
                  JOINT rIndex1
                  {
                    OFFSET -4.1246 0.487 4.1451
                    CHANNELS 6 Xposition Yposition Zposition Zrotation Xrotation Yrotation
                    JOINT rIndex2
                    {
                      OFFSET -3.4052 -1.454 2.7682
                      CHANNELS 6 Xposition Yposition Zposition Zrotation Xrotation Yrotation
                      JOINT rIndex2_End
                      {
                        OFFSET -1.4531 -1.795 1.2713
                        CHANNELS 6 Xposition Yposition Zposition Zrotation Xrotation Yrotation
                        End Site
                        {
                          OFFSET -0.0145 -0.018 0.0127
                        }
                      }
                    }
                  }
                  JOINT rMid1
                  {
                    OFFSET -5.6954 0.21 2.1184
                    CHANNELS 6 Xposition Yposition Zposition Zrotation Xrotation Yrotation
                    JOINT rMid2
                    {
                      OFFSET -3.9766 -1.54 2.3863
                      CHANNELS 6 Xposition Yposition Zposition Zrotation Xrotation Yrotation
                      JOINT rMid2_End
                      {
                        OFFSET -1.4042 -1.926 1.125
                        CHANNELS 6 Xposition Yposition Zposition Zrotation Xrotation Yrotation
                        End Site
                        {
                          OFFSET -0.014 -0.0193 0.0113
                        }
                      }
                    }
                  }
                }
                JOINT rCarpal2
                {
                  OFFSET -2.0956 0.66 -0.3894
                  CHANNELS 6 Xposition Yposition Zposition Zrotation Xrotation Yrotation
                  JOINT rRing1
                  {
                    OFFSET -5.0395 -0.09 2.4971
                    CHANNELS 6 Xposition Yposition Zposition Zrotation Xrotation Yrotation
                    JOINT rRing2
                    {
                      OFFSET -3.7921 -1.552 1.4806
                      CHANNELS 6 Xposition Yposition Zposition Zrotation Xrotation Yrotation
                      JOINT rRing2_End
                      {
                        OFFSET -1.4655 -1.808 0.9609
                        CHANNELS 6 Xposition Yposition Zposition Zrotation Xrotation Yrotation
                        End Site
                        {
                          OFFSET -0.0147 -0.0181 0.0096
                        }
                      }
                    }
                  }
                  JOINT rPinky1
                  {
                    OFFSET -4.9141 -1.269 0.3592
                    CHANNELS 6 Xposition Yposition Zposition Zrotation Xrotation Yrotation
                    JOINT rPinky2
                    {
                      OFFSET -3.1477 -1.685 0.8462
                      CHANNELS 6 Xposition Yposition Zposition Zrotation Xrotation Yrotation
                      JOINT rPinky2_End
                      {
                        OFFSET -0.8055 -1.585 0.7955
                        CHANNELS 6 Xposition Yposition Zposition Zrotation Xrotation Yrotation
                        End Site
                        {
                          OFFSET -0.0081 -0.0158 0.008
                        }
                      }
                    }
                  }
                }
              }
            }
          }
        }
      }
    }
  }
  JOINT lThigh
  {
    OFFSET 8.367 -8.2066 0.5982
    CHANNELS 6 Xposition Yposition Zposition Zrotation Xrotation Yrotation
    JOINT lShin
    {
      OFFSET 2.1923 -43.463 -0.4932
      CHANNELS 6 Xposition Yposition Zposition Zrotation Xrotation Yrotation
      JOINT lFoot
      {
        OFFSET 0.7333 -45.8593 -2.6451
        CHANNELS 6 Xposition Yposition Zposition Zrotation Xrotation Yrotation
        End Site
        {
          OFFSET 2.6618 -4.2699 12.3931
        }
      }
    }
  }
  JOINT rThigh
  {
    OFFSET -8.367 -8.2066 0.5982
    CHANNELS 6 Xposition Yposition Zposition Zrotation Xrotation Yrotation
    JOINT rShin
    {
      OFFSET -2.1923 -43.463 -0.4931
      CHANNELS 6 Xposition Yposition Zposition Zrotation Xrotation Yrotation
      JOINT rFoot
      {
        OFFSET -0.7333 -45.8593 -2.6451
        CHANNELS 6 Xposition Yposition Zposition Zrotation Xrotation Yrotation
        End Site
        {
          OFFSET -2.6618 -4.2699 12.3931
        }
      }
    }
  }
}
MOTION
Frames:	4
Frame Time:	0.0333333
0 90.174 2.4664 0 0 -0 0 -1.186 -1.5018 0 0 -0 0 9.964 0.2134 0 0 -0 0 13.134 -3.2573 0 0 -0 0 20.686 -1.6905 0 0 -0 0 7.238 -0.1237 0 0 -0 1.7069 20.075 5.0056 0 0 -0 13.6458 -0.047 -4.849 1.66051 0.0835086 5.75766 28.3255 -0.9759 2.2888 -0.0175111 0.895433 15.7816 22.1583 -0.53 10.8316 7.95139e-016 -1.98785e-016 -0 0.786 0.112 2.5817 5.46658e-016 -3.97569e-016 -0 0.3601 -0.878 4.2331 5.96354e-016 0 -0 1.8127 -1.216 2.2227 3.97569e-016 1.98785e-016 9.54166e-015 0.9571 1.114 1.7695 1.49089e-016 -3.97569e-016 -0 4.1246 0.487 4.1451 6.4605e-016 0 3.18055e-015 3.4052 -1.454 2.7682 5.96354e-016 0 3.18055e-015 1.4531 -1.795 1.2713 8.94531e-016 -1.98785e-016 6.36111e-015 5.6954 0.21 2.1184 6.4605e-016 0 3.18055e-015 3.9766 -1.54 2.3863 5.96354e-016 0 3.18055e-015 1.4042 -1.926 1.125 8.94531e-016 -1.98785e-016 6.36111e-015 2.0956 0.66 -0.3894 1.49089e-016 -3.97569e-016 -0 5.0395 -0.09 2.4971 6.4605e-016 0 3.18055e-015 3.7921 -1.552 1.4806 5.96354e-016 0 3.18055e-015 1.4655 -1.808 0.9609 8.94531e-016 -1.98785e-016 6.36111e-015 4.9141 -1.269 0.3591 6.4605e-016 0 3.18055e-015 3.1477 -1.685 0.8462 5.96354e-016 0 3.18055e-015 0.8055 -1.585 0.7955 8.94531e-016 -1.98785e-016 6.36111e-015 -1.7069 20.075 5.0056 0 0 -0 -13.6458 -0.047 -4.849 -1.4496 0.0636048 -5.0245 -28.3255 -0.9759 2.2888 -1.74811 1.20616 -16.8394 -22.1583 -0.53 10.8316 -1.19271e-015 1.98785e-016 -3.18055e-015 -0.786 0.112 2.5817 -3.97569e-016 1.98785e-016 -3.18055e-015 -0.3601 -0.878 4.2331 -2.98177e-016 1.98785e-016 -3.18055e-015 -1.8127 -1.216 2.2227 -2.98177e-016 3.97569e-016 -0 -0.9571 1.114 1.7695 4.96962e-016 0 -6.36111e-015 -4.1246 0.487 4.1451 -9.93923e-017 3.97569e-016 -0 -3.4052 -1.454 2.7682 -8.94531e-016 5.96354e-016 -0 -1.4531 -1.795 1.2713 -3.97569e-016 3.97569e-016 -0 -5.6954 0.21 2.1184 -9.93923e-017 3.97569e-016 -0 -3.9766 -1.54 2.3863 -8.94531e-016 5.96354e-016 -0 -1.4042 -1.926 1.125 -3.97569e-016 3.97569e-016 -0 -2.0956 0.66 -0.3894 4.96962e-016 0 -6.36111e-015 -5.0395 -0.09 2.4971 -9.93923e-017 3.97569e-016 -0 -3.7921 -1.552 1.4806 -8.94531e-016 5.96354e-016 -0 -1.4655 -1.808 0.9609 -3.97569e-016 3.97569e-016 -0 -4.9141 -1.269 0.3592 -9.93923e-017 3.97569e-016 -0 -3.1477 -1.685 0.8462 -8.94531e-016 5.96354e-016 -0 -0.8055 -1.585 0.7955 -3.97569e-016 3.97569e-016 -0 8.367 -8.2066 0.5982 -4.66115 -1.03232 0.120763 2.1923 -43.463 -0.4932 0.00990601 1.55097 0.177175 0.7333 -45.8593 -2.6451 4.65196 -0.54114 -0.255042 -8.367 -8.2066 0.5982 4.66115 -1.03222 -0.120763 -2.1923 -43.463 -0.4931 -0.00990459 1.5509 -0.177176 -0.7333 -45.8593 -2.6451 -4.65196 -0.541171 0.255041 
0.838963 1.97694 -9.923 -180 -89.9981 -180 0 -1.186 -1.5018 -0.0789669 7.72076 -0.142768 1.11022e-016 9.964 0.2134 -0.14025 15.4417 -0.278534 -1.11022e-016 13.134 -3.2573 -0.14025 15.4417 -0.278534 0 20.686 -1.6905 0.000715528 17.9975 26.997 3.55271e-015 7.238 -0.1237 -0.00209491 4.99621 24.9967 1.7069 20.075 5.0056 -0.877496 3.44006 12.1284 13.6458 -0.047 -4.849 -74.852 1.95355 35.841 28.3255 -0.9759 2.2888 33.1862 3.52115 -60.6006 22.1583 -0.53 10.8316 2.76124 27.4284 -3.92194 0.786 0.112 2.5817 -2.78299e-015 -5.96354e-016 9.54166e-015 0.3601 -0.878 4.2331 3.05705e-006 -2.09728e-006 -9.03446e-007 1.8127 -1.216 2.2227 1.98785e-015 1.78906e-015 -0 0.9571 1.114 1.7695 -2.78299e-015 -5.36719e-015 9.54166e-015 4.1246 0.487 4.1451 1.19271e-015 -2.78299e-015 1.90833e-014 3.4052 -1.454 2.7682 3.05705e-006 -2.09728e-006 -9.03446e-007 1.4531 -1.795 1.2713 7.95139e-016 1.78906e-015 6.36111e-015 5.6954 0.21 2.1184 1.19271e-015 -2.78299e-015 1.90833e-014 3.9766 -1.54 2.3863 3.05705e-006 -2.09728e-006 -9.03446e-007 1.4042 -1.926 1.125 7.95139e-016 1.78906e-015 6.36111e-015 2.0956 0.66 -0.3894 -2.78299e-015 -5.36719e-015 9.54166e-015 5.0395 -0.09 2.4971 1.19271e-015 -2.78299e-015 1.90833e-014 3.7921 -1.552 1.4806 3.05705e-006 -2.09728e-006 -9.03446e-007 1.4655 -1.808 0.9609 7.95139e-016 1.78906e-015 6.36111e-015 4.9141 -1.269 0.3591 1.19271e-015 -2.78299e-015 1.90833e-014 3.1477 -1.685 0.8462 3.05705e-006 -2.09728e-006 -9.03446e-007 0.8055 -1.585 0.7955 7.95139e-016 1.78906e-015 6.36111e-015 -1.7069 20.075 5.0056 5.99937 -0.408869 8.43185 -13.6458 -0.047 -4.849 52.6812 27.8249 20.901 -28.3255 -0.9759 2.2888 40.9061 -0.192212 35.9944 -22.1583 -0.53 10.8316 -23.434 -8.55107 -14.727 -0.786 0.112 2.5817 1.59028e-015 -7.15625e-015 3.18055e-015 -0.3601 -0.878 4.2331 1.59028e-015 -7.95139e-016 1.59028e-015 -1.8127 -1.216 2.2227 1.59028e-015 -7.95139e-016 3.18055e-015 -0.9571 1.114 1.7695 1.59028e-015 -3.97569e-015 1.59028e-015 -4.1246 0.487 4.1451 6.36111e-015 -2.34566e-014 3.18055e-015 -3.4052 -1.454 2.7682 3.18055e-015 6.75868e-015 -0 -1.4531 -1.795 1.2713 3.18055e-015 0 1.59028e-015 -5.6954 0.21 2.1184 6.36111e-015 -2.34566e-014 3.18055e-015 -3.9766 -1.54 2.3863 3.18055e-015 6.75868e-015 -0 -1.4042 -1.926 1.125 3.18055e-015 0 1.59028e-015 -2.0956 0.66 -0.3894 1.59028e-015 -3.97569e-015 1.59028e-015 -5.0395 -0.09 2.4971 6.36111e-015 -2.34566e-014 3.18055e-015 -3.7921 -1.552 1.4806 3.18055e-015 6.75868e-015 -0 -1.4655 -1.808 0.9609 3.18055e-015 0 1.59028e-015 -4.9141 -1.269 0.3592 6.36111e-015 -2.34566e-014 3.18055e-015 -3.1477 -1.685 0.8462 3.18055e-015 6.75868e-015 -0 -0.8055 -1.585 0.7955 3.18055e-015 0 1.59028e-015 8.367 -8.2066 0.5982 5.52591 3.90319 -24.9833 2.1923 -43.463 -0.4932 -5.61956 3.09225 0.0449155 0.7333 -45.8593 -2.6451 16.4785 -3.0889 4.14007 -8.367 -8.2066 0.5982 -21.2542 -44.554 11.2806 -2.1923 -43.463 -0.4931 172.4 80.9 -178.199 -0.7333 -45.8593 -2.6451 -16.9968 48.6588 44.2128 
0.839957 1.97685 -9.92295 -180 -89.9981 -180 0 -1.186 -1.5018 -0.0751097 7.90392 -0.143591 -2.22045e-016 9.964 0.2134 -0.131908 15.808 -0.280674 -1.11022e-016 13.134 -3.2573 -0.131908 15.808 -0.280675 0 20.686 -1.6905 0.120344 17.3108 26.9578 -1.77636e-015 7.238 -0.1237 -0.00968021 4.68872 24.9966 1.7069 20.075 5.0056 -1.36092 3.16887 11.9184 13.6458 -0.047 -4.849 -74.481 2.10536 35.7513 28.3255 -0.9759 2.2888 33.2042 3.4416 -60.3887 22.1583 -0.53 10.8316 3.32377 26.8434 -4.39011 0.786 0.112 2.5817 8.60712e-031 7.7526e-015 -6.36111e-015 0.3601 -0.878 4.2331 1.98785e-015 -5.36719e-015 3.18055e-015 1.8127 -1.216 2.2227 -1.19271e-015 -4.77083e-015 -0 0.9571 1.114 1.7695 1.59028e-015 7.55382e-015 -0 4.1246 0.487 4.1451 2.38542e-015 -1.19271e-015 2.54444e-014 3.4052 -1.454 2.7682 3.08973e-031 -5.56597e-015 3.18055e-015 1.4531 -1.795 1.2713 1.19271e-015 1.59028e-015 -6.36111e-015 5.6954 0.21 2.1184 2.38542e-015 -1.19271e-015 2.54444e-014 3.9766 -1.54 2.3863 3.08973e-031 -5.56597e-015 3.18055e-015 1.4042 -1.926 1.125 1.19271e-015 1.59028e-015 -6.36111e-015 2.0956 0.66 -0.3894 1.59028e-015 7.55382e-015 -0 5.0395 -0.09 2.4971 2.38542e-015 -1.19271e-015 2.54444e-014 3.7921 -1.552 1.4806 3.08973e-031 -5.56597e-015 3.18055e-015 1.4655 -1.808 0.9609 1.19271e-015 1.59028e-015 -6.36111e-015 4.9141 -1.269 0.3591 2.38542e-015 -1.19271e-015 2.54444e-014 3.1477 -1.685 0.8462 3.08973e-031 -5.56597e-015 3.18055e-015 0.8055 -1.585 0.7955 1.19271e-015 1.59028e-015 -6.36111e-015 -1.7069 20.075 5.0056 5.60416 -0.972553 8.22795 -13.6458 -0.047 -4.849 52.9323 27.9701 20.7922 -28.3255 -0.9759 2.2888 40.8557 0.223489 36.9788 -22.1583 -0.53 10.8316 -23.8908 -8.42309 -14.5351 -0.786 0.112 2.5817 -9.30061e-006 4.05043e-006 6.54758e-008 -0.3601 -0.878 4.2331 3.18055e-015 9.14409e-015 -0 -1.8127 -1.216 2.2227 -1.59028e-015 6.36111e-015 -0 -0.9571 1.114 1.7695 2.20695e-031 -3.97569e-015 3.18055e-015 -4.1246 0.487 4.1451 -9.30061e-006 4.05043e-006 6.54758e-008 -3.4052 -1.454 2.7682 4.19321e-031 1.51076e-014 -1.59028e-015 -1.4531 -1.795 1.2713 1.59028e-015 3.57812e-015 1.59028e-015 -5.6954 0.21 2.1184 -9.30061e-006 4.05043e-006 6.54758e-008 -3.9766 -1.54 2.3863 4.19321e-031 1.51076e-014 -1.59028e-015 -1.4042 -1.926 1.125 1.59028e-015 3.57812e-015 1.59028e-015 -2.0956 0.66 -0.3894 2.20695e-031 -3.97569e-015 3.18055e-015 -5.0395 -0.09 2.4971 -9.30061e-006 4.05043e-006 6.54758e-008 -3.7921 -1.552 1.4806 4.19321e-031 1.51076e-014 -1.59028e-015 -1.4655 -1.808 0.9609 1.59028e-015 3.57812e-015 1.59028e-015 -4.9141 -1.269 0.3592 -9.30061e-006 4.05043e-006 6.54758e-008 -3.1477 -1.685 0.8462 4.19321e-031 1.51076e-014 -1.59028e-015 -0.8055 -1.585 0.7955 1.59028e-015 3.57812e-015 1.59028e-015 8.367 -8.2066 0.5982 5.52536 3.90357 -24.9832 2.1923 -43.463 -0.4932 -5.61944 3.09166 0.0448479 0.7333 -45.8593 -2.6451 16.4791 -3.08845 4.13998 -8.367 -8.2066 0.5982 -22.416 -44.7407 9.87023 -2.1923 -43.463 -0.4931 172.389 80.8992 -178.161 -0.7333 -45.8593 -2.6451 -18.5251 48.4137 45.2358 
0.840959 1.9768 -9.92289 -180 -89.9981 -180 0 -1.186 -1.5018 -0.0712401 8.08714 -0.144447 1.11022e-016 9.964 0.2134 -0.12352 16.1744 -0.282916 0 13.134 -3.2573 -0.12352 16.1744 -0.282915 0 20.686 -1.6905 0.239115 16.6251 26.9202 0 7.238 -0.1237 -0.0172671 4.38121 24.9964 1.7069 20.075 5.0056 -1.84538 2.89942 11.706 13.6458 -0.047 -4.849 -74.1096 2.25662 35.6607 28.3255 -0.9759 2.2888 33.2226 3.3621 -60.1767 22.1583 -0.53 10.8316 3.87841 26.254 -4.84973 0.786 0.112 2.5817 1.19271e-015 6.95746e-015 3.18055e-015 0.3601 -0.878 4.2331 0 5.56597e-015 -0 1.8127 -1.216 2.2227 1.59028e-015 7.55382e-015 -0 0.9571 1.114 1.7695 1.19271e-015 7.15625e-015 3.18055e-015 4.1246 0.487 4.1451 -1.59028e-015 2.98177e-015 1.27222e-014 3.4052 -1.454 2.7682 -3.57812e-015 2.5842e-015 -6.36111e-015 1.4531 -1.795 1.2713 -3.97569e-016 -3.97569e-015 -0 5.6954 0.21 2.1184 -1.59028e-015 2.98177e-015 1.27222e-014 3.9766 -1.54 2.3863 -3.57812e-015 2.5842e-015 -6.36111e-015 1.4042 -1.926 1.125 -3.97569e-016 -3.97569e-015 -0 2.0956 0.66 -0.3894 1.19271e-015 7.15625e-015 3.18055e-015 5.0395 -0.09 2.4971 -1.59028e-015 2.98177e-015 1.27222e-014 3.7921 -1.552 1.4806 -3.57812e-015 2.5842e-015 -6.36111e-015 1.4655 -1.808 0.9609 -3.97569e-016 -3.97569e-015 -0 4.9141 -1.269 0.3591 -1.59028e-015 2.98177e-015 1.27222e-014 3.1477 -1.685 0.8462 -3.57812e-015 2.5842e-015 -6.36111e-015 0.8055 -1.585 0.7955 -3.97569e-016 -3.97569e-015 -0 -1.7069 20.075 5.0056 5.20668 -1.53501 8.02 -13.6458 -0.047 -4.849 53.1841 28.1148 20.6826 -28.3255 -0.9759 2.2888 40.7981 0.638751 37.9647 -22.1583 -0.53 10.8316 -24.348 -8.29661 -14.3422 -0.786 0.112 2.5817 -3.18055e-015 4.77083e-015 -1.59028e-015 -0.3601 -0.878 4.2331 -3.18055e-015 1.59028e-015 -4.77083e-015 -1.8127 -1.216 2.2227 -1.59028e-015 2.78299e-015 -1.59028e-015 -0.9571 1.114 1.7695 -1.59028e-015 1.59028e-015 1.59028e-015 -4.1246 0.487 4.1451 3.18055e-015 -2.10712e-014 1.59028e-015 -3.4052 -1.454 2.7682 3.18055e-015 7.95139e-016 -1.59028e-015 -1.4531 -1.795 1.2713 6.62086e-032 7.95139e-016 -4.77083e-015 -5.6954 0.21 2.1184 3.18055e-015 -2.10712e-014 1.59028e-015 -3.9766 -1.54 2.3863 3.18055e-015 7.95139e-016 -1.59028e-015 -1.4042 -1.926 1.125 6.62086e-032 7.95139e-016 -4.77083e-015 -2.0956 0.66 -0.3894 -1.59028e-015 1.59028e-015 1.59028e-015 -5.0395 -0.09 2.4971 3.18055e-015 -2.10712e-014 1.59028e-015 -3.7921 -1.552 1.4806 3.18055e-015 7.95139e-016 -1.59028e-015 -1.4655 -1.808 0.9609 6.62086e-032 7.95139e-016 -4.77083e-015 -4.9141 -1.269 0.3592 3.18055e-015 -2.10712e-014 1.59028e-015 -3.1477 -1.685 0.8462 3.18055e-015 7.95139e-016 -1.59028e-015 -0.8055 -1.585 0.7955 6.62086e-032 7.95139e-016 -4.77083e-015 8.367 -8.2066 0.5982 5.52469 3.90334 -24.9831 2.1923 -43.463 -0.4932 -5.61949 3.09197 0.0448954 0.7333 -45.8593 -2.6451 16.4796 -3.08827 4.13994 -8.367 -8.2066 0.5982 -23.5892 -44.9066 8.44863 -2.1923 -43.463 -0.4931 172.378 80.8991 -178.122 -0.7333 -45.8593 -2.6451 -20.0406 48.1509 46.2445 
